<mxfile host="app.diagrams.net" modified="2024-03-19T09:33:29.255Z" agent="Mozilla/5.0 (Windows NT 10.0; Win64; x64) AppleWebKit/537.36 (KHTML, like Gecko) Chrome/122.0.0.0 Safari/537.36" version="24.0.7" etag="z7ThRZoOwfPq3gr70vQI" type="github">
  <diagram name="Страница — 1" id="VzalWA2Egsjq6tHP2Xkd">
    <mxGraphModel>
      <root>
        <mxCell id="0" />
        <mxCell id="1" parent="0" />
      </root>
    </mxGraphModel>
  </diagram>
</mxfile>
